<?xml version="1.0" encoding="UTF-8" standalone="no"?>
<svg
   xml:space="preserve"
   width="7.87402in"
   height="7.87402in"
   version="1.0"
   style="shape-rendering:geometricPrecision; text-rendering:geometricPrecision; image-rendering:optimizeQuality; fill-rule:evenodd; clip-rule:evenodd"
   viewBox="0 0 7868.04 7868.04"
   id="svg10"
   inkscape:version="1.1-rc (52f87abb86, 2021-05-02)"
   xmlns:inkscape="http://www.inkscape.org/namespaces/inkscape"
   xmlns:sodipodi="http://sodipodi.sourceforge.net/DTD/sodipodi-0.dtd"
   xmlns="http://www.w3.org/2000/svg"
   xmlns:svg="http://www.w3.org/2000/svg"><sodipodi:namedview
   id="namedview12"
   pagecolor="#ffffff"
   bordercolor="#666666"
   borderopacity="1.0"
   objecttolerance="10.0"
   gridtolerance="10.0"
   guidetolerance="10.0"
   inkscape:pageshadow="2"
   inkscape:pageopacity="0.0"
   inkscape:pagecheckerboard="0"
   inkscape:document-units="in"
   showgrid="false"
   inkscape:zoom="0.42994768"
   inkscape:cx="482.61686"
   inkscape:cy="594.25835"
   inkscape:window-width="1378"
   inkscape:window-height="877"
   inkscape:window-x="54"
   inkscape:window-y="-8"
   inkscape:window-maximized="1"
   inkscape:current-layer="Camada_x0020_1" />
 <defs
   id="defs4">
  <style
   type="text/css"
   id="style2">
   <![CDATA[
    .fil0 {fill:#0000FF}
   ]]>
  </style>
 </defs>
 <g
   id="Camada_x0020_1"
   inkscape:label="Camada 1">
  <path
   class="fil0"
   d="M2128.53 7868.04c-456.65,0 -828.35,-58.05 -1115.09,-175.45 -288.25,-117.4 -515.82,-304.72 -684.22,-561.95 -121.37,-183.36 -206.33,-418.16 -256.39,-704.41 -48.55,-284.93 -72.83,-767.74 -72.83,-1448.41l0 -3204.16 1620.3 0 0 3730.49c0,563.27 40.96,912.84 122.88,1047.39 80.42,133.23 224.54,200.51 432.38,200.51 177.74,0 308.06,-49.67 392.78,-148.21l0 -6603.85 2112.91 0 0 6263.04 2533.1 0c0,535 0,1070 0,1605l-5085.82 0zm3769.32 -7232.06l1336.18 0c348.7,0 634.01,285.3 634.01,634.01l0 996.31c0,348.71 -285.31,634.01 -634.01,634.01l-1970.19 0 0 -1630.32c0,-348.71 285.3,-634.01 634.01,-634.01z"
   id="path7" />
 </g>
</svg>
